<svg width="48" height="54" viewBox="0 0 48 54" fill="none" xmlns="http://www.w3.org/2000/svg">
<path d="M35.7851 20.0519C39.2277 22.5027 43.4451 23.9447 48 23.9447V15.2159C47.1379 15.216 46.2781 15.1264 45.4348 14.9485V21.8194C40.8802 21.8194 36.6634 20.3775 33.2201 17.9269V35.7402C33.2201 44.6515 25.9663 51.8748 17.0191 51.8748C13.6807 51.8748 10.5776 50.8697 8 49.1458C10.942 52.1416 15.0448 54 19.5836 54C28.5316 54 35.7855 46.7767 35.7855 37.8651V20.0519H35.7851ZM38.9498 11.2455C37.1903 9.33134 36.0351 6.85757 35.7851 4.12265V3H33.3542C33.9662 6.47595 36.0535 9.44557 38.9498 11.2455ZM13.6591 42.3077C12.6761 41.0243 12.1448 39.454 12.1472 37.8395C12.1472 33.764 15.465 30.4594 19.5584 30.4594C20.3211 30.459 21.0793 30.5756 21.8064 30.8052V21.8811C20.9567 21.7652 20.0993 21.7158 19.2423 21.734V28.68C18.5148 28.4502 17.7562 28.3337 16.9931 28.3343C12.8999 28.3343 9.58231 31.6386 9.58231 35.7147C9.58231 38.5969 11.2406 41.0922 13.6591 42.3077Z" fill="#FF004F"/>
<path d="M32.8005 17.9648C36.2397 20.4217 40.4509 21.8672 45 21.8672V14.9788C42.4608 14.438 40.2129 13.1116 38.5229 11.2666C35.63 9.46185 33.5456 6.48464 32.9345 3H26.5573V37.9537C26.5427 42.0287 23.2348 45.3281 19.1553 45.3281C16.7516 45.3281 14.6158 44.1827 13.2634 42.4079C10.8482 41.1894 9.19181 38.6876 9.19181 35.7984C9.19181 31.7123 12.5053 28.3992 16.5934 28.3992C17.3767 28.3992 18.1316 28.5211 18.8398 28.7458V21.782C10.0605 21.9634 3 29.1344 3 37.9539C3 42.3566 4.75818 46.3477 7.61183 49.264C10.1862 50.9919 13.2853 52 16.6197 52C25.5561 52 32.8006 44.7577 32.8006 35.8238V17.965L32.8005 17.9648Z" fill="black"/>
<path d="M45 14.5773V12.6533C42.6877 12.6569 40.421 11.9945 38.4592 10.742C40.1958 12.6866 42.4825 14.0275 45 14.5776V14.5773ZM32.8157 2.20095C32.7568 1.85694 32.7117 1.51063 32.6803 1.16287V0H23.7883V36.114C23.7742 40.3238 20.4337 43.7327 16.314 43.7327C15.146 43.7345 13.9941 43.4551 12.9512 42.9172C14.3169 44.7504 16.4736 45.9337 18.901 45.9337C23.0204 45.9337 26.3613 42.5251 26.3758 38.315V2.20114H32.8157V2.20095ZM18.583 21.6062V19.5576C17.8399 19.4537 17.0908 19.4017 16.3409 19.402C7.31581 19.402 0 26.8845 0 36.114C0 41.9006 2.8752 47.0003 7.24443 50C4.36272 46.9872 2.58726 42.8634 2.58726 38.3148C2.58726 29.2028 9.71699 21.7936 18.583 21.6062Z" fill="#00F2EA"/>
</svg>
